<svg width="50" height="50" viewBox="0 0 50 50" fill="none" xmlns="http://www.w3.org/2000/svg">
<circle cx="25.0001" cy="25" r="25" fill="url(#paint0_linear_0_1)"/>
<path d="M16.9612 28.6503H23.2227L21.9636 35.8235C21.925 36.0436 21.9589 36.2708 22.0596 36.4685C22.1603 36.6663 22.3222 36.8232 22.5191 36.914C22.716 37.0048 22.9366 37.0244 23.1456 36.9695C23.3545 36.9145 23.5395 36.7883 23.6711 36.6111L33.8005 22.9565C33.9101 22.8088 33.9775 22.6322 33.9954 22.4468C34.0132 22.2613 33.9806 22.0744 33.9014 21.9072C33.8221 21.74 33.6994 21.5991 33.547 21.5006C33.3946 21.402 33.2186 21.3498 33.0391 21.3497H26.7776L28.0367 14.1765C28.0752 13.9564 28.0414 13.7292 27.9406 13.5315C27.8399 13.3337 27.6781 13.1768 27.4812 13.086C27.2842 12.9952 27.0636 12.9756 26.8547 13.0305C26.6458 13.0855 26.4607 13.2117 26.3292 13.3889L16.1997 27.0435C16.0902 27.1912 16.0227 27.3678 16.0049 27.5532C15.987 27.7387 16.0196 27.9256 16.0989 28.0928C16.1781 28.26 16.3009 28.4009 16.4533 28.4994C16.6057 28.598 16.7816 28.6502 16.9612 28.6503ZM25.4347 17.8659L24.679 22.1689C24.6538 22.3127 24.6593 22.4606 24.6952 22.602C24.7311 22.7434 24.7964 22.8749 24.8867 22.9871C24.9769 23.0994 25.0899 23.1897 25.2174 23.2517C25.345 23.3136 25.4842 23.3457 25.625 23.3457H31.0851L24.5656 32.1341L25.3212 27.8311C25.3465 27.6873 25.341 27.5394 25.3051 27.398C25.2692 27.2566 25.2038 27.1251 25.1136 27.0129C25.0233 26.9006 24.9104 26.8103 24.7828 26.7483C24.6552 26.6864 24.5161 26.6543 24.3752 26.6543H18.9151L25.4347 17.8659Z" fill="white"/>
<defs>
<linearGradient id="paint0_linear_0_1" x1="0.000122194" y1="34.375" x2="50.0001" y2="13.5417" gradientUnits="userSpaceOnUse">
<stop stop-color="#9F7437"/>
<stop offset="1" stop-color="#E3D293"/>
</linearGradient>
</defs>
</svg>
