<svg width="50" height="18" viewBox="0 0 50 18" fill="none" xmlns="http://www.w3.org/2000/svg">
<g opacity="0.3">
<path d="M13.7969 10.7304L13.7901 10.7866C12.1409 9.96464 11.9684 9.85515 11.7554 10.1746C11.6076 10.3959 11.1771 10.8976 11.0474 11.0461C10.9161 11.1924 10.7856 11.2036 10.5629 11.1024C10.3379 10.9899 9.61563 10.7536 8.76063 9.98864C8.09463 9.3924 7.64763 8.66117 7.51563 8.43617C7.29588 8.05668 7.75563 8.00268 8.17413 7.21069C8.24913 7.0532 8.21088 6.92945 8.15538 6.8177C8.09913 6.7052 7.65138 5.60272 7.46388 5.16323C7.28388 4.72524 7.09863 4.78074 6.95988 4.78074C6.52788 4.74324 6.21213 4.74924 5.93388 5.03873C4.72338 6.36921 5.02863 7.74168 6.06438 9.20116C8.09988 11.8651 9.18438 12.3556 11.1674 13.0366C11.7029 13.2068 12.1911 13.1828 12.5774 13.1273C13.0079 13.0591 13.9026 12.5866 14.0894 12.0579C14.2806 11.5291 14.2806 11.0904 14.2244 10.9891C14.1689 10.8879 14.0219 10.8316 13.7969 10.7304Z" fill="white"/>
<path d="M16.0566 2.58703C10.2899 -2.98762 0.746126 1.05556 0.742376 8.91991C0.742376 10.4919 1.15413 12.0249 1.93863 13.3786L0.666626 18L5.41788 16.761C11.3466 19.9635 18.6636 15.711 18.6666 8.92441C18.6666 6.54246 17.7366 4.30075 16.0454 2.61628L16.0566 2.58703ZM17.1681 8.89966C17.1636 14.6243 10.8794 18.1995 5.90913 15.2776L5.63913 15.1171L2.82663 15.8483L3.58038 13.1146L3.40113 12.8333C0.308126 7.90968 3.86163 1.4748 9.72063 1.4748C11.7111 1.4748 13.5794 2.25103 14.9864 3.65726C16.3926 5.05148 17.1681 6.9197 17.1681 8.89966Z" fill="white"/>
</g>
<path opacity="0.3" d="M39.3373 11.2269L39.0561 15.1357C39.4584 15.1357 39.6327 14.9649 39.8416 14.7598L41.728 12.9783L45.6366 15.807C46.3535 16.2018 46.8586 15.9939 47.0519 15.1553L49.6176 3.27498L49.6183 3.27428C49.8457 2.22708 49.2351 1.81758 48.5366 2.07448L33.4559 7.78015C32.4266 8.17495 32.4422 8.74195 33.2809 8.99885L37.1364 10.1839L46.0921 4.64627C46.5136 4.37047 46.8968 4.52307 46.5816 4.79887L39.3373 11.2269Z" fill="white"/>
</svg>
